<?xml version="1.0" encoding="UTF-8"?>
<svg data-bbox="21 20.001 158.002 159.999" viewBox="0 0 200 200" height="200" width="200" xmlns="http://www.w3.org/2000/svg" data-type="color">
    <g>
        <path d="M32.315 96.419a.442.442 0 0 1-.301-.763l49.033-45.823a.44.44 0 0 1 .19-.104l33.377-8.662 6.071-14.337a.44.44 0 1 1 .81.344l-6.156 14.537a.44.44 0 0 1-.295.254l-33.478 8.688-48.951 45.746a.44.44 0 0 1-.3.118Z" fill="#191919" data-color="1"/>
        <path d="M177.653 97.461a.44.44 0 0 1-.402-.261l-4.839-10.879-.028-.084-5.811-26.344a.44.44 0 0 1 .86-.19l5.802 26.3 4.821 10.838a.44.44 0 0 1-.402.62Z" fill="#191919" data-color="1"/>
        <path d="M32.681 81.48a.44.44 0 0 1-.301-.762l36.623-34.433a.44.44 0 0 1 .192-.106l48.763-12.562a.44.44 0 0 1 .219.854L69.523 47.005l-36.54 34.356a.44.44 0 0 1-.301.119Z" fill="#191919" data-color="1"/>
        <path d="M149.562 72.403a.44.44 0 0 1-.339-.159l-31.495-37.919a.44.44 0 1 1 .677-.564L149.9 71.68a.442.442 0 0 1-.338.723" fill="#191919" data-color="1"/>
        <path d="M52.39 160.134a.44.44 0 0 1-.202-.832l29.107-15.075 38.435-34.545 29.485-37.989a.44.44 0 1 1 .695.54l-29.509 38.021a.4.4 0 0 1-.054.058L81.841 144.92a.5.5 0 0 1-.092.064l-29.156 15.101a.45.45 0 0 1-.202.049Z" fill="#191919" data-color="1"/>
        <path d="M51.291 128.38a.44.44 0 0 1-.428-.546l5.63-22.934a.45.45 0 0 1 .129-.219l24.424-22.505-.069-16.066a.44.44 0 0 1 .438-.442h.002a.44.44 0 0 1 .44.439l.07 16.261a.44.44 0 0 1-.142.326l-24.47 22.546-5.598 22.805a.44.44 0 0 1-.427.336Z" fill="#191919" data-color="1"/>
        <path d="M97.687 150.233a.5.5 0 0 1-.135-.021l-32.247-10.389a.44.44 0 0 1-.292-.313l-8.464-34.171-24.385-8.946a.5.5 0 0 1-.085-.042l-9.93-6.325a.441.441 0 0 1 .473-.744l9.89 6.299 24.56 9.01c.137.05.24.165.276.308l8.461 34.16 31.774 10.236 25.986-23.163 38.324-50.099 2.31-8.063-30.143-35.894a.44.44 0 0 1 .674-.567l30.294 36.073a.44.44 0 0 1 .086.405l-2.398 8.369a.4.4 0 0 1-.074.147l-38.401 50.199a.4.4 0 0 1-.057.061l-26.205 23.359a.44.44 0 0 1-.293.111Z" fill="#191919" data-color="1"/>
        <path d="M55.501 145.212a.442.442 0 0 1-.427-.549l5.695-22.503a.44.44 0 1 1 .853.217l-5.695 22.503a.44.44 0 0 1-.426.332" fill="#191919" data-color="1"/>
        <path d="M126.438 166.362a.5.5 0 0 1-.105-.012l-22.431-5.495a.44.44 0 0 1-.274-.203l-6.32-10.635a.441.441 0 0 1 .756-.451l6.226 10.476 22.252 5.451a.44.44 0 0 1-.104.869" fill="#191919" data-color="1"/>
        <path d="M116.186 93.856a.4.4 0 0 1-.134-.021l-17.369-5.53a.44.44 0 0 1-.21-.145l-17.4-21.778a.45.45 0 0 1-.097-.274l-.069-15.952a.44.44 0 0 1 .438-.442h.002a.44.44 0 0 1 .44.439l.068 15.798 17.221 21.553 17.242 5.489a.44.44 0 0 1-.133.86Z" fill="#191919" data-color="1"/>
        <path d="M98.817 88.326a.4.4 0 0 1-.134-.021l-17.33-5.517a.44.44 0 0 1 .267-.84l17.33 5.517a.44.44 0 0 1-.133.86Z" fill="#191919" data-color="1"/>
        <path d="M98.58 71.994a.4.4 0 0 1-.133-.021l-17.163-5.445a.44.44 0 1 1 .267-.84l17.163 5.445a.44.44 0 0 1-.133.861Z" fill="#191919" data-color="1"/>
        <path d="M162.293 76.675a.4.4 0 0 1-.14-.023l-25.766-8.647a.44.44 0 0 1-.199-.137L114.596 41.72a.441.441 0 0 1 .679-.562l21.512 26.052 25.646 8.607a.44.44 0 0 1-.14.859Z" fill="#191919" data-color="1"/>
        <path d="M45.883 150.408a.44.44 0 0 1-.353-.176L25.849 123.94l-4.701-4.157a.44.44 0 0 1-.148-.345l.477-15.028c.008-.243.208-.45.454-.426a.44.44 0 0 1 .426.454l-.47 14.821 4.579 4.05q.033.03.061.066l19.708 26.328a.441.441 0 0 1-.351.705Z" fill="#191919" data-color="1"/>
        <path d="M45.883 150.408a.44.44 0 0 1-.21-.829l19.51-10.539 50.679-45.928 20.319-25.798a.44.44 0 1 1 .691.546L116.53 93.687l-.05.054-50.746 45.988a.4.4 0 0 1-.086.061l-19.557 10.564a.44.44 0 0 1-.208.053Z" fill="#191919" data-color="1"/>
        <path d="M58.717 169.59a.441.441 0 0 1-.196-.835l38.97-19.358a.44.44 0 0 1 .303-.033l22.899 5.79c.117.03.216.105.275.21l5.726 10.119 14.6.148 10.357-4.569 8.951-12.316a.44.44 0 0 1 .712.519l-9.021 12.412a.45.45 0 0 1-.178.144l-10.553 4.655c-.057.025-.122.026-.182.037l-14.948-.152a.44.44 0 0 1-.378-.223l-5.759-10.176-22.56-5.705-38.824 19.285a.44.44 0 0 1-.195.046Z" fill="#191919" data-color="1"/>
        <path d="M96.703 179.778a.44.44 0 0 1-.017-.881l5.656-.212 14.373-4.269a.44.44 0 1 1 .25.845l-14.426 4.284a.5.5 0 0 1-.109.018l-5.711.214h-.017Z" fill="#191919" data-color="1"/>
        <path d="M74.722 174.79a.44.44 0 0 1-.189-.839l29.285-13.922a.4.4 0 0 1 .065-.025l16.43-4.801 17.292-25.09 28.084-37.274.036-.042 6.638-6.824-.85-14.83a.44.44 0 0 1 .879-.051l.861 15.023a.44.44 0 0 1-.124.333l-6.754 6.944-28.056 37.237-17.37 25.203a.45.45 0 0 1-.239.173l-16.546 4.835-29.254 13.907a.44.44 0 0 1-.188.043" fill="#191919" data-color="1"/>
        <path d="M90.76 180a.44.44 0 0 1-.016-.881l5.875-.219 12.047-4.292a.4.4 0 0 1 .138-.025l7.968-.182 14.253-4.233a.44.44 0 0 1 .25.845l-14.309 4.249a.5.5 0 0 1-.115.018l-7.956.182-12.044 4.291a.5.5 0 0 1-.131.025l-5.943.222z" fill="#191919" data-color="1"/>
        <path d="M52.562 163.417a.44.44 0 0 1-.353-.176l-8.813-11.774-8.27-12.475-1.516-2.066-5.62-7.003-6.913-10.224a.44.44 0 0 1 .729-.494l6.892 10.195 5.611 6.989 1.54 2.098 8.268 12.471 8.799 11.753a.441.441 0 0 1-.351.705Z" fill="#191919" data-color="1"/>
        <path d="M43.748 151.643a.44.44 0 0 1-.353-.176l-8.715-11.643-6.713-9.929a.44.44 0 0 1 .729-.494l6.701 9.912 8.703 11.626a.441.441 0 0 1-.351.705Z" fill="#191919" data-color="1"/>
        <path d="m160.959 149.447-.037-.002-13.873-1.169a.4.4 0 0 1-.076-.013l-36.36-9.667a.45.45 0 0 1-.208-.125l-41.579-44.43a.4.4 0 0 1-.054-.071L44.967 55.186l-7.273-2.087a.44.44 0 0 1 .242-.847l7.437 2.134c.106.03.196.099.254.192l23.872 38.893 41.462 44.306 36.201 9.625 13.588 1.145 8.691-11.96 8.675-24.46-.899-15.045-5.683-25.826-4.933-11.281a.441.441 0 0 1 .807-.354l4.95 11.32q.017.04.027.082l5.7 25.902a.4.4 0 0 1 .009.068l.907 15.17a.5.5 0 0 1-.024.174l-8.726 24.604a.5.5 0 0 1-.059.112l-8.875 12.212a.44.44 0 0 1-.356.181Z" fill="#191919" data-color="1"/>
        <path d="M177.653 97.461a.44.44 0 0 1-.439-.414l-.886-14.826-4.778-10.926a.441.441 0 0 1 .807-.354l4.809 10.998a.4.4 0 0 1 .036.151l.891 14.904a.44.44 0 0 1-.413.466h-.027Z" fill="#191919" data-color="1"/>
        <path d="M110.136 171.182a.44.44 0 0 1-.378-.215l-6.129-10.314a.441.441 0 0 1 .756-.451l6 10.097 20.67-.149 10.153-4.479a.441.441 0 0 1 .355.806l-10.237 4.516a.4.4 0 0 1-.174.037l-21.013.152z" fill="#191919" data-color="1"/>
        <path d="M47.669 41.729a.44.44 0 0 1-.258-.797l9.042-6.542a.44.44 0 0 1 .316-.08l5.088.679 46.412-11.788a.441.441 0 0 1 .217.855L61.991 35.865a.5.5 0 0 1-.167.009l-4.999-.667-8.9 6.439a.44.44 0 0 1-.257.084Z" fill="#191919" data-color="1"/>
        <path d="M52.39 160.134a.44.44 0 0 1-.344-.165l-6.411-8.023-.396-.541-9.639-14.439a.44.44 0 0 1-.062-.345l8.476-36.293a.44.44 0 0 1 .129-.223l36.975-34.319a.44.44 0 0 1 .598.647L44.84 100.661l-8.402 35.975 9.522 14.265.374.511 6.4 8.008a.442.442 0 0 1-.344.716Z" fill="#191919" data-color="1"/>
        <path d="M57.577 43.59a.442.442 0 0 1-.384-.656l4.306-7.713a.441.441 0 0 1 .769.43l-4.306 7.713a.44.44 0 0 1-.385.225Z" fill="#191919" data-color="1"/>
        <path d="M169.834 137.235a.4.4 0 0 1-.063-.004l-18.141-2.597-.056-.012-27.801-7.763a.441.441 0 0 1 .236-.849l27.774 7.756 18.112 2.593a.44.44 0 0 1-.062.877Z" fill="#191919" data-color="1"/>
        <path d="M52.456 42.628a.44.44 0 0 1-.381-.66l4.254-7.441a.4.4 0 0 1 .124-.138l9.324-6.746a.44.44 0 1 1 .515.714l-9.247 6.691-4.207 7.358a.44.44 0 0 1-.382.222" fill="#191919" data-color="1"/>
        <path d="m174.149 125.068-.088-.009-13.348-2.702a.44.44 0 0 1-.252-.151l-34.353-41.539L97.88 46.055 80.737 24.478a.441.441 0 0 1 .689-.548l17.139 21.572 28.223 34.605 34.252 41.417 13.195 2.671a.44.44 0 0 1-.087.872Z" fill="#191919" data-color="1"/>
        <path d="M178.56 112.631a.5.5 0 0 1-.113-.015l-8.799-2.336a.441.441 0 0 1 .225-.852l8.799 2.336a.441.441 0 0 1-.112.867" fill="#191919" data-color="1"/>
        <path d="M151.939 161.859h-.013l-9.349-.272a.5.5 0 0 1-.095-.013l-22.004-5.564a.44.44 0 0 1 .215-.854l21.957 5.552 9.3.271a.44.44 0 0 1-.013.882Z" fill="#191919" data-color="1"/>
        <path d="M90.76 180a.5.5 0 0 1-.136-.021l-32.035-10.407a.44.44 0 0 1-.173-.099l-.002-.001-.011-.011-3.139-3.148-.054-.066-9.598-14.331-.374-.511-5.843-7.268-4.241-5.105-1.545-2.105-10.213-15.175a.44.44 0 0 1-.072-.298l1.663-14.137-3.336-2.541a.44.44 0 0 1-.173-.365l.468-14.77q0-.039.009-.078l5.414-25.407a.45.45 0 0 1 .098-.197L47.336 41a.44.44 0 0 1 .414-.144l4.603.864 9.194-6.584 4.103-7.35a.44.44 0 0 1 .277-.212l29.969-7.56a.46.46 0 0 1 .217 0l25.087 6.462h.009l.034.011 26.3 9.664a.44.44 0 0 1 .184.129l9.742 11.541.012.013 9.856 11.675a.44.44 0 0 1 .087.406l-2.281 7.96 9.535 43.071a.44.44 0 0 1-.042.304l-26.896 50.24a.44.44 0 0 1-.24.207l-38.54 13.737a.4.4 0 0 1-.137.025l-8.421.192-9.46 4.305a.5.5 0 0 1-.182.04Zm-31.763-11.223 31.736 10.31 8.673-3.946-44.152-30.004a.45.45 0 0 1-.18-.257l-3.78-15.11-4.938 20.115 12.641 18.893Zm51.292 2.378-7.848 3.572 6.291-.144 38.313-13.656 26.739-49.946-9.524-43.021a.43.43 0 0 1 .007-.217l2.247-7.842-9.543-11.304-14.722 2.952 20.38 24.401a.44.44 0 0 1 .092.187l7.468 33.619a.44.44 0 0 1-.076.359l-18.026 24.287-9.081 26.883a.44.44 0 0 1-.292.281l-32.425 9.587Zm-54.403-26.654 44.458 30.212 9.609-4.373a.4.4 0 0 1 .057-.022l32.235-9.531 9.03-26.732a.4.4 0 0 1 .064-.122l17.947-24.182-7.401-33.317-20.619-24.688-15.441 3.097-26.803 16.949.233 16.085a.44.44 0 0 1-.143.332l-37.621 34.383a.4.4 0 0 1-.078.057l-9.616 5.504 4.089 16.345Zm-31.67-23.107 10.112 15.025 1.518 2.069 4.23 5.09 6.069 7.574-.629-.939a.44.44 0 0 1-.062-.35l5.341-21.757-21.866-17.786-3.13-2.384zm1.702-14.475 3.555 2.707 21.859 17.78 9.601-5.496 37.439-34.217-.233-16.134a.44.44 0 0 1 .205-.379l27.08-17.125a.4.4 0 0 1 .149-.059l15.05-3.019-19.693-23.579-63.245 16.178a.4.4 0 0 1-.19.006l-4.887-.918-21.824 22.814-4.866 41.44Zm-3.555-2.708 2.742 2.089 4.822-41.07a.44.44 0 0 1 .119-.254L51.575 42.47l-3.74-.702-19.63 22.682-5.382 25.258zm100.121-76.327 19.123 22.896 14.716-2.951-9.192-10.888zm-68.932 14.06 4.011.754 61.756-15.797-23.316-6.006-29.676 7.486-4.059 7.271a.45.45 0 0 1-.128.143z" fill="#191919" data-color="1"/>
        <path d="M32.681 81.48a.45.45 0 0 1-.202-.049l-7.616-3.95a.44.44 0 0 1 .405-.783l7.616 3.95a.44.44 0 0 1-.203.832" fill="#191919" data-color="1"/>
        <path d="M55.576 166.441a.44.44 0 0 1-.311-.129l-3.015-3.024a.4.4 0 0 1-.054-.066l-26.387-39.337a.44.44 0 0 1-.064-.341l6.132-27.619.724-29.577a.44.44 0 0 1 .138-.309l24.537-23.21a.43.43 0 0 1 .426-.102l23.771 7.007a.43.43 0 0 1 .218.146l34.837 43.259a.45.45 0 0 1 .086.176l7.706 33.018a.44.44 0 1 1-.857.2l-7.684-32.92-34.688-43.074-23.397-6.896-24.22 22.909-.721 29.436a.4.4 0 0 1-.01.085l-6.1 27.476 26.258 39.145 2.985 2.993a.442.442 0 0 1-.311.753Z" fill="#191919" data-color="1"/>
        <path d="M33.04 66.8a.4.4 0 0 1-.164-.032l-5.241-2.112a.44.44 0 0 1 .328-.817l5.241 2.112a.441.441 0 0 1-.165.849Z" fill="#191919" data-color="1"/>
        <path d="M178.559 112.631a.44.44 0 0 1-.429-.346l-5.746-26.049a.44.44 0 0 1 .86-.19l5.746 26.048a.44.44 0 0 1-.43.535Z" fill="#191919" data-color="1"/>
    </g>
</svg>
