<svg width="374" height="374" viewBox="0 0 374 374" fill="none" xmlns="http://www.w3.org/2000/svg">
<circle cx="187" cy="187" r="186" fill="white" stroke="white" stroke-width="2"/>
<path d="M309.898 116.657C302.024 103.777 290.748 93.3218 277.311 86.4417C263.874 79.5616 248.799 76.5241 233.747 77.6639C218.694 78.8037 204.248 84.0765 192.001 92.9014C179.753 101.726 170.18 113.761 164.335 127.679L193.645 139.988C197.224 131.466 203.086 124.097 210.586 118.694C218.085 113.29 226.93 110.062 236.147 109.364C245.364 108.666 254.594 110.526 262.822 114.738C271.049 118.951 277.954 125.353 282.776 133.239L309.898 116.657Z" fill="#101828"/>
<path d="M177.162 216.277C187.008 228 197.705 236.648 211.108 242.112C224.511 247.575 239.127 249.395 253.474 247.386C267.82 245.377 281.387 239.611 292.796 230.673C304.205 221.735 313.051 209.944 318.435 196.495L288.889 184.721C285.592 192.955 280.176 200.175 273.19 205.648C266.204 211.121 257.897 214.652 249.113 215.882C240.328 217.112 231.378 215.998 223.172 212.652C214.965 209.307 207.416 204.016 202.008 197L177.162 216.277Z" fill="url(#paint0_linear_36_11715)"/>
<path d="M105.122 119.783L178.977 218.596L203.439 198.891L162.289 143.881L145.932 120.888L132.607 103.12L115.488 78.5035L105.122 119.783Z" fill="url(#paint1_linear_36_11715)"/>
<path d="M73.99 158.035L179.989 297.504L196.492 265.004L140.417 189.991L118.116 158.035L100.198 133.406L82.2921 108.01L73.99 158.035Z" fill="url(#paint2_linear_36_11715)"/>
<path d="M58.4633 210.662L143.16 322.054L156.78 289.77L115.63 234.76L99.2733 211.766L85.9484 193.998L68.1632 169.553L58.4633 210.662Z" fill="url(#paint3_linear_36_11715)"/>
<defs>
<linearGradient id="paint0_linear_36_11715" x1="276.315" y1="243.381" x2="226.193" y2="178.357" gradientUnits="userSpaceOnUse">
<stop stop-color="#101828"/>
<stop offset="1" stop-color="#02437D"/>
</linearGradient>
<linearGradient id="paint1_linear_36_11715" x1="145.935" y1="75.4737" x2="160.362" y2="220.448" gradientUnits="userSpaceOnUse">
<stop stop-color="#101828"/>
<stop offset="1" stop-color="#02437D"/>
</linearGradient>
<linearGradient id="paint2_linear_36_11715" x1="108.141" y1="101.635" x2="157.797" y2="302.977" gradientUnits="userSpaceOnUse">
<stop stop-color="#101828"/>
<stop offset="1" stop-color="#02437D"/>
</linearGradient>
<linearGradient id="paint3_linear_36_11715" x1="99.2867" y1="166.456" x2="115.049" y2="324.851" gradientUnits="userSpaceOnUse">
<stop stop-color="#101828"/>
<stop offset="1" stop-color="#02437D"/>
</linearGradient>
</defs>
</svg>
